<?xml version="1.0" encoding="utf-8"?>
<!-- Generator: Adobe Illustrator 25.0.0, SVG Export Plug-In . SVG Version: 6.00 Build 0)  -->
<svg version="1.1" id="Layer_1" xmlns="http://www.w3.org/2000/svg" xmlns:xlink="http://www.w3.org/1999/xlink" x="0px" y="0px"
	 viewBox="0 0 288 288" style="enable-background:new 0 0 288 288;" xml:space="preserve">
<style type="text/css">
	.st0{enable-background:new    ;}
	.st1{clip-path:url(#SVGID_2_);enable-background:new    ;}
	.st2{clip-path:url(#SVGID_4_);enable-background:new    ;}
	.st3{clip-path:url(#SVGID_6_);enable-background:new    ;}
	.st4{clip-path:url(#SVGID_8_);enable-background:new    ;}
	.st5{clip-path:url(#SVGID_10_);enable-background:new    ;}
	.st6{clip-path:url(#SVGID_12_);enable-background:new    ;}
	.st7{clip-path:url(#SVGID_14_);enable-background:new    ;}
	.st8{clip-path:url(#SVGID_16_);enable-background:new    ;}
	.st9{opacity:0.2;}
	.st10{clip-path:url(#SVGID_18_);enable-background:new    ;}
	.st11{clip-path:url(#SVGID_20_);enable-background:new    ;}
	.st12{clip-path:url(#SVGID_22_);enable-background:new    ;}
	.st13{clip-path:url(#SVGID_24_);enable-background:new    ;}
	.st14{clip-path:url(#SVGID_26_);enable-background:new    ;}
	.st15{clip-path:url(#SVGID_28_);enable-background:new    ;}
	.st16{clip-path:url(#SVGID_30_);enable-background:new    ;}
	.st17{clip-path:url(#SVGID_32_);enable-background:new    ;}
	.st18{opacity:0.7;}
	.st19{clip-path:url(#SVGID_34_);enable-background:new    ;}
	.st20{clip-path:url(#SVGID_36_);enable-background:new    ;}
	.st21{clip-path:url(#SVGID_38_);enable-background:new    ;}
	.st22{clip-path:url(#SVGID_40_);enable-background:new    ;}
</style>
<g>
	<g>
		<g>
			<g>
				<g class="st0">
					<g>
						<polygon points="159.98,132.41 150.55,127.28 150.57,115.59 160,120.71 						"/>
					</g>
					<g>
						<polygon points="160,120.71 150.57,115.59 192.55,109.68 201.98,114.81 						"/>
					</g>
					<g class="st0">
						<defs>
							<path id="SVGID_1_" class="st0" d="M130.73,166.31c-3.14-1.71-6.29-3.42-9.43-5.13c6.13,3.33,13.29,4.43,21.47,3.28
								c10.2-1.43,18.69-5.97,25.49-13.6c6.8-7.63,10.59-16.85,11.34-27.66l9.43,5.13c-0.76,10.81-4.54,20.03-11.34,27.66
								c-6.8,7.63-15.29,12.17-25.49,13.6C144.01,170.74,136.86,169.65,130.73,166.31z"/>
						</defs>
						<use xlink:href="#SVGID_1_"  style="overflow:visible;"/>
						<clipPath id="SVGID_2_">
							<use xlink:href="#SVGID_1_"  style="overflow:visible;"/>
						</clipPath>
						<g class="st1">
							<path d="M130.73,166.31l-9.43-5.13c0.36,0.19,0.72,0.38,1.08,0.56l9.43,5.13C131.45,166.69,131.08,166.51,130.73,166.31"/>
							<path d="M131.81,166.87l-9.43-5.13c1.81,0.89,3.71,1.59,5.69,2.11l9.43,5.13C135.52,168.46,133.62,167.76,131.81,166.87"/>
							<path d="M137.5,168.98l-9.43-5.13c4.46,1.16,9.36,1.36,14.7,0.61c4.4-0.62,8.49-1.82,12.26-3.59l9.43,5.13
								c-3.77,1.78-7.86,2.97-12.26,3.59C146.86,170.34,141.96,170.13,137.5,168.98"/>
							<path d="M164.46,165.99l-9.43-5.13c1.97-0.93,3.85-2.01,5.64-3.25l9.43,5.13C168.31,163.98,166.43,165.07,164.46,165.99"/>
							<path d="M170.1,162.74l-9.43-5.13c1.43-0.99,2.8-2.08,4.12-3.26l9.43,5.13C172.91,160.66,171.53,161.75,170.1,162.74"/>
							<path d="M174.22,159.47l-9.43-5.13c1.2-1.08,2.36-2.24,3.46-3.49c0.05-0.06,0.11-0.12,0.16-0.18l9.43,5.13
								c-0.05,0.06-0.1,0.12-0.16,0.18C176.58,157.23,175.42,158.39,174.22,159.47"/>
							<path d="M177.85,155.81l-9.43-5.13c1.14-1.29,2.19-2.62,3.15-3.99l9.43,5.13C180.03,153.19,178.98,154.52,177.85,155.81"/>
							<path d="M181,151.82l-9.43-5.13c0.99-1.41,1.89-2.87,2.7-4.38l9.43,5.13C182.89,148.94,181.99,150.4,181,151.82"/>
							<path d="M183.7,147.44l-9.43-5.13c0.97-1.8,1.81-3.67,2.52-5.61l9.43,5.13C185.51,143.77,184.67,145.64,183.7,147.44"/>
							<path d="M186.22,141.83l-9.43-5.13c1.54-4.18,2.47-8.68,2.81-13.5l9.43,5.13C188.7,133.14,187.76,137.64,186.22,141.83"/>
						</g>
					</g>
					<g class="st0">
						<defs>
							<path id="SVGID_3_" class="st0" d="M163.42,75.97c3.14,1.71,6.29,3.42,9.43,5.13c4.82,2.62,8.9,6.73,12.22,12.31l-9.43-5.13
								C172.32,82.7,168.25,78.59,163.42,75.97z"/>
						</defs>
						<use xlink:href="#SVGID_3_"  style="overflow:visible;"/>
						<clipPath id="SVGID_4_">
							<use xlink:href="#SVGID_3_"  style="overflow:visible;"/>
						</clipPath>
						<g class="st2">
							<path d="M185.07,93.41l-9.43-5.13c-3.32-5.58-7.4-9.69-12.22-12.31l9.43,5.13C177.67,83.72,181.75,87.83,185.07,93.41"/>
						</g>
					</g>
					<g class="st0">
						<defs>
							<path id="SVGID_5_" class="st0" d="M172.03,65.19c3.14,1.71,6.28,3.42,9.43,5.13c-1.3-0.71-2.66-1.34-4.05-1.89
								c-7.18-2.81-15.65-3.54-25.43-2.17l-9.43-5.13c9.78-1.38,18.25-0.65,25.43,2.17C169.38,63.85,170.73,64.48,172.03,65.19z"/>
						</defs>
						<use xlink:href="#SVGID_5_"  style="overflow:visible;"/>
						<clipPath id="SVGID_6_">
							<use xlink:href="#SVGID_5_"  style="overflow:visible;"/>
						</clipPath>
						<g class="st3">
							<path d="M151.98,66.26l-9.43-5.13c7.87-1.11,14.88-0.85,21.06,0.75l9.43,5.13C166.86,65.41,159.84,65.16,151.98,66.26"/>
							<path d="M173.04,67.01l-9.43-5.13c1.5,0.39,2.96,0.86,4.37,1.41c0.94,0.37,1.85,0.77,2.75,1.21l9.43,5.13
								c-0.89-0.44-1.81-0.84-2.75-1.21C176,67.88,174.54,67.4,173.04,67.01"/>
							<path d="M180.15,69.64l-9.43-5.13c0.44,0.22,0.88,0.44,1.31,0.68l9.43,5.13C181.03,70.08,180.59,69.86,180.15,69.64"/>
						</g>
					</g>
					<g class="st0">
						<defs>
							<path id="SVGID_7_" class="st0" d="M122.55,177.31l-9.43-5.13c-6.94-3.78-12.41-9.23-16.4-16.37
								c-4.53-8.09-6.77-17.68-6.75-28.79c0.02-9.16,1.39-17.6,4.11-25.37c2.73-7.76,6.83-14.82,12.3-21.19
								c4.6-5.35,9.93-9.65,16.01-12.9c6.07-3.26,12.8-5.4,20.16-6.44l9.43,5.13c-7.36,1.04-14.08,3.18-20.16,6.44
								c-6.08,3.25-11.41,7.55-16.01,12.9c-5.47,6.37-9.57,13.43-12.3,21.19c-2.72,7.76-4.09,16.21-4.11,25.37
								c-0.02,11.1,2.23,20.7,6.75,28.79C110.14,168.08,115.61,173.53,122.55,177.31z"/>
						</defs>
						<use xlink:href="#SVGID_7_"  style="overflow:visible;"/>
						<clipPath id="SVGID_8_">
							<use xlink:href="#SVGID_7_"  style="overflow:visible;"/>
						</clipPath>
						<g class="st4">
							<path d="M122.55,177.31l-9.43-5.13c-6.94-3.78-12.41-9.23-16.4-16.37c-4.53-8.09-6.77-17.68-6.75-28.79
								c0.02-9.16,1.39-17.6,4.11-25.37c0.1-0.29,0.21-0.58,0.31-0.87l9.43,5.13c-0.11,0.29-0.21,0.58-0.31,0.87
								c-2.72,7.76-4.09,16.21-4.11,25.37c-0.02,11.1,2.23,20.7,6.75,28.79C110.14,168.08,115.61,173.53,122.55,177.31"/>
							<path d="M103.82,105.91l-9.43-5.13c1.07-2.9,2.32-5.7,3.78-8.4l9.43,5.13C106.15,100.22,104.89,103.02,103.82,105.91"/>
							<path d="M107.6,97.52l-9.43-5.13c1.22-2.27,2.58-4.47,4.07-6.6l9.43,5.13C110.18,93.05,108.82,95.25,107.6,97.52"/>
							<path d="M111.67,90.92l-9.43-5.13c1.28-1.82,2.66-3.6,4.14-5.32c0.17-0.2,0.35-0.4,0.52-0.6l9.43,5.13
								c-0.18,0.2-0.35,0.4-0.52,0.6C114.33,87.32,112.95,89.1,111.67,90.92"/>
							<path d="M116.33,85l-9.43-5.13c1.47-1.66,3.01-3.22,4.63-4.68l9.43,5.13C119.34,81.78,117.8,83.34,116.33,85"/>
							<path d="M120.96,80.32l-9.43-5.13c1.75-1.57,3.58-3.02,5.5-4.35l9.43,5.13C124.54,77.3,122.7,78.75,120.96,80.32"/>
							<path d="M126.46,75.97l-9.43-5.13c1.72-1.19,3.51-2.28,5.36-3.27c0.84-0.45,1.69-0.88,2.56-1.29l9.43,5.13
								c-0.87,0.41-1.72,0.84-2.56,1.29C129.96,73.69,128.17,74.78,126.46,75.97"/>
							<path d="M134.38,71.41l-9.43-5.13c5.39-2.54,11.26-4.26,17.6-5.15l9.43,5.13C145.63,67.15,139.76,68.87,134.38,71.41"/>
						</g>
					</g>
					<g>
						<path d="M151.98,66.26c9.78-1.38,18.25-0.65,25.43,2.17c7.17,2.82,13.12,7.74,17.83,14.78l-10.17,10.2
							c-3.65-6.13-8.21-10.48-13.66-13.04c-5.46-2.55-11.8-3.33-19.04-2.31c-11.81,1.66-21.41,7.31-28.8,16.95
							c-7.38,9.63-11.08,21.41-11.11,35.31c-0.02,13.11,3.7,23.33,11.16,30.68c7.46,7.35,16.99,10.21,28.57,8.59
							c10.2-1.43,18.69-5.97,25.49-13.6c6.8-7.63,10.59-16.85,11.34-27.66l-29.05,4.08l0.02-11.7l41.98-5.9l-0.01,3.67
							c-0.03,17.3-4.6,31.59-13.7,42.87c-9.1,11.28-21.51,18.02-37.21,20.23c-4.77,0.67-9.33,0.77-13.65,0.28
							c-4.33-0.5-8.33-1.54-11.98-3.12c-8.33-3.77-14.76-9.71-19.28-17.8c-4.53-8.09-6.77-17.68-6.75-28.79
							c0.02-9.16,1.39-17.6,4.11-25.37c2.73-7.76,6.83-14.82,12.3-21.19c4.6-5.35,9.93-9.65,16.01-12.9
							C137.89,69.44,144.62,67.3,151.98,66.26z"/>
					</g>
				</g>
			</g>
		</g>
		<g>
			<g>
				<g class="st0">
					<g>
						<polygon points="169.29,137.62 159.86,132.5 159.88,120.8 169.31,125.93 						"/>
					</g>
					<g>
						<polygon points="169.31,125.93 159.88,120.8 201.86,114.9 211.29,120.02 						"/>
					</g>
					<g class="st0">
						<defs>
							<path id="SVGID_9_" class="st0" d="M140.03,171.52c-3.14-1.71-6.29-3.42-9.43-5.13c6.13,3.33,13.29,4.43,21.47,3.28
								c10.2-1.43,18.69-5.97,25.49-13.6c6.8-7.63,10.59-16.85,11.34-27.66l9.43,5.13c-0.76,10.81-4.54,20.03-11.34,27.66
								c-6.8,7.63-15.29,12.17-25.49,13.6C153.32,175.95,146.16,174.86,140.03,171.52z"/>
						</defs>
						<use xlink:href="#SVGID_9_"  style="overflow:visible;"/>
						<clipPath id="SVGID_10_">
							<use xlink:href="#SVGID_9_"  style="overflow:visible;"/>
						</clipPath>
						<g class="st5">
							<path d="M140.03,171.52l-9.43-5.13c0.36,0.19,0.72,0.38,1.08,0.56l9.43,5.13C140.75,171.9,140.39,171.72,140.03,171.52"/>
							<path d="M141.11,172.08l-9.43-5.13c1.81,0.89,3.71,1.59,5.69,2.11l9.43,5.13C144.82,173.67,142.92,172.97,141.11,172.08"/>
							<path d="M146.8,174.19l-9.43-5.13c4.46,1.16,9.36,1.36,14.7,0.61c4.4-0.62,8.49-1.82,12.26-3.59l9.43,5.13
								c-3.77,1.78-7.86,2.97-12.26,3.59C156.17,175.55,151.27,175.35,146.8,174.19"/>
							<path d="M173.76,171.2l-9.43-5.13c1.97-0.93,3.85-2.01,5.64-3.25l9.43,5.13C177.61,169.19,175.73,170.28,173.76,171.2"/>
							<path d="M179.41,167.95l-9.43-5.13c1.43-0.99,2.8-2.08,4.12-3.26l9.43,5.13C182.21,165.87,180.84,166.96,179.41,167.95"/>
							<path d="M183.53,164.68l-9.43-5.13c1.2-1.08,2.36-2.24,3.46-3.49c0.05-0.06,0.11-0.12,0.16-0.18l9.43,5.13
								c-0.05,0.06-0.1,0.12-0.16,0.18C185.88,162.44,184.73,163.6,183.53,164.68"/>
							<path d="M187.15,161.02l-9.43-5.13c1.14-1.29,2.19-2.62,3.15-3.99l9.43,5.13C189.34,158.4,188.29,159.73,187.15,161.02"/>
							<path d="M190.3,157.03l-9.43-5.13c0.99-1.41,1.89-2.87,2.7-4.38l9.43,5.13C192.19,154.16,191.29,155.62,190.3,157.03"/>
							<path d="M193,152.65l-9.43-5.13c0.97-1.8,1.81-3.67,2.52-5.61l9.43,5.13C194.81,148.98,193.97,150.85,193,152.65"/>
							<path d="M195.53,147.04l-9.43-5.13c1.54-4.18,2.47-8.68,2.81-13.5l9.43,5.13C198,138.35,197.06,142.85,195.53,147.04"/>
						</g>
					</g>
					<g class="st0">
						<defs>
							<path id="SVGID_11_" class="st0" d="M172.73,81.18c3.14,1.71,6.29,3.42,9.43,5.13c4.82,2.62,8.9,6.73,12.22,12.31l-9.43-5.13
								C181.62,87.91,177.55,83.8,172.73,81.18z"/>
						</defs>
						<use xlink:href="#SVGID_11_"  style="overflow:visible;"/>
						<clipPath id="SVGID_12_">
							<use xlink:href="#SVGID_11_"  style="overflow:visible;"/>
						</clipPath>
						<g class="st6">
							<path d="M194.38,98.62l-9.43-5.13c-3.32-5.58-7.4-9.69-12.22-12.31l9.43,5.13C186.98,88.93,191.05,93.04,194.38,98.62"/>
						</g>
					</g>
					<g class="st0">
						<defs>
							<path id="SVGID_13_" class="st0" d="M181.34,70.4c3.14,1.71,6.28,3.42,9.43,5.13c-1.3-0.71-2.66-1.34-4.05-1.89
								c-7.18-2.81-15.65-3.54-25.43-2.17l-9.43-5.13c9.78-1.38,18.25-0.65,25.43,2.17C178.68,69.06,180.03,69.69,181.34,70.4z"/>
						</defs>
						<use xlink:href="#SVGID_13_"  style="overflow:visible;"/>
						<clipPath id="SVGID_14_">
							<use xlink:href="#SVGID_13_"  style="overflow:visible;"/>
						</clipPath>
						<g class="st7">
							<path d="M161.28,71.47l-9.43-5.13c7.87-1.11,14.88-0.85,21.06,0.75l9.43,5.13C176.16,70.62,169.14,70.37,161.28,71.47"/>
							<path d="M182.34,72.23l-9.43-5.13c1.5,0.39,2.96,0.86,4.37,1.41c0.94,0.37,1.85,0.77,2.75,1.21l9.43,5.13
								c-0.89-0.44-1.81-0.84-2.75-1.21C185.3,73.09,183.85,72.62,182.34,72.23"/>
							<path d="M189.46,74.85l-9.43-5.13c0.44,0.22,0.88,0.44,1.31,0.68l9.43,5.13C190.33,75.29,189.9,75.07,189.46,74.85"/>
						</g>
					</g>
					<g class="st0">
						<defs>
							<path id="SVGID_15_" class="st0" d="M131.86,182.52l-9.43-5.13c-6.94-3.78-12.41-9.23-16.4-16.37
								c-4.53-8.09-6.77-17.68-6.75-28.79c0.02-9.16,1.39-17.6,4.11-25.37c2.73-7.76,6.83-14.82,12.3-21.19
								c4.6-5.35,9.93-9.65,16.01-12.9c6.07-3.26,12.8-5.4,20.16-6.44l9.43,5.13c-7.36,1.04-14.08,3.18-20.16,6.44
								c-6.08,3.25-11.41,7.55-16.01,12.9c-5.47,6.37-9.57,13.43-12.3,21.19c-2.72,7.76-4.09,16.21-4.11,25.37
								c-0.02,11.1,2.23,20.7,6.75,28.79C119.45,173.29,124.91,178.74,131.86,182.52z"/>
						</defs>
						<use xlink:href="#SVGID_15_"  style="overflow:visible;"/>
						<clipPath id="SVGID_16_">
							<use xlink:href="#SVGID_15_"  style="overflow:visible;"/>
						</clipPath>
						<g class="st8">
							<path d="M131.86,182.52l-9.43-5.13c-6.94-3.78-12.41-9.23-16.4-16.37c-4.53-8.09-6.77-17.68-6.75-28.79
								c0.02-9.16,1.39-17.6,4.11-25.37c0.1-0.29,0.21-0.58,0.31-0.87l9.43,5.13c-0.11,0.29-0.21,0.58-0.31,0.87
								c-2.72,7.76-4.09,16.21-4.11,25.37c-0.02,11.1,2.23,20.7,6.75,28.79C119.45,173.29,124.91,178.74,131.86,182.52"/>
							<path d="M113.13,111.12L103.7,106c1.07-2.9,2.32-5.7,3.78-8.4l9.43,5.13C115.45,105.43,114.19,108.23,113.13,111.12"/>
							<path d="M116.9,102.73l-9.43-5.13c1.22-2.27,2.58-4.47,4.07-6.6l9.43,5.13C119.48,98.26,118.12,100.46,116.9,102.73"/>
							<path d="M120.97,96.13L111.55,91c1.28-1.82,2.66-3.6,4.14-5.32c0.17-0.2,0.35-0.4,0.52-0.6l9.43,5.13
								c-0.18,0.2-0.35,0.4-0.52,0.6C123.63,92.53,122.25,94.31,120.97,96.13"/>
							<path d="M125.63,90.21l-9.43-5.13c1.47-1.66,3.01-3.22,4.63-4.68l9.43,5.13C128.64,86.99,127.1,88.55,125.63,90.21"/>
							<path d="M130.26,85.54l-9.43-5.13c1.75-1.57,3.58-3.02,5.5-4.35l9.43,5.13C133.84,82.51,132.01,83.96,130.26,85.54"/>
							<path d="M135.76,81.18l-9.43-5.13c1.72-1.19,3.51-2.28,5.36-3.27c0.84-0.45,1.69-0.88,2.56-1.29l9.43,5.13
								c-0.87,0.41-1.72,0.84-2.56,1.29C139.27,78.9,137.48,79.99,135.76,81.18"/>
							<path d="M143.68,76.62l-9.43-5.13c5.39-2.54,11.26-4.26,17.6-5.15l9.43,5.13C154.94,72.36,149.07,74.08,143.68,76.62"/>
						</g>
					</g>
					<g>
						<path d="M161.28,71.47c9.78-1.38,18.25-0.65,25.43,2.17c7.17,2.82,13.12,7.74,17.83,14.78l-10.17,10.2
							c-3.65-6.13-8.21-10.48-13.66-13.04c-5.46-2.55-11.8-3.33-19.04-2.31c-11.81,1.66-21.41,7.31-28.8,16.95
							c-7.38,9.63-11.08,21.41-11.11,35.31c-0.02,13.11,3.7,23.33,11.16,30.68c7.46,7.35,16.99,10.21,28.57,8.59
							c10.2-1.43,18.69-5.97,25.49-13.6c6.8-7.63,10.59-16.85,11.34-27.66l-29.05,4.08l0.02-11.7l41.98-5.9l-0.01,3.67
							c-0.03,17.3-4.6,31.59-13.7,42.87c-9.1,11.28-21.51,18.02-37.21,20.23c-4.77,0.67-9.33,0.77-13.65,0.28
							c-4.33-0.5-8.33-1.54-11.98-3.12c-8.33-3.77-14.76-9.71-19.28-17.8c-4.53-8.09-6.77-17.68-6.75-28.79
							c0.02-9.16,1.39-17.6,4.11-25.37c2.73-7.76,6.83-14.82,12.3-21.19c4.6-5.35,9.93-9.65,16.01-12.9
							C147.2,74.65,153.92,72.51,161.28,71.47z"/>
					</g>
				</g>
			</g>
		</g>
		<g class="st9">
			<g>
				<g class="st0">
					<g>
						<polygon points="150.67,127.35 141.25,122.22 141.27,110.52 150.7,115.65 						"/>
					</g>
					<g>
						<polygon points="150.7,115.65 141.27,110.52 183.25,104.62 192.68,109.75 						"/>
					</g>
					<g class="st0">
						<defs>
							<path id="SVGID_17_" class="st0" d="M121.42,161.25c-3.14-1.71-6.28-3.42-9.43-5.13c6.13,3.33,13.29,4.43,21.47,3.28
								c10.2-1.43,18.69-5.97,25.49-13.6c6.8-7.63,10.59-16.85,11.34-27.66l9.43,5.13c-0.76,10.81-4.54,20.03-11.34,27.66
								c-6.8,7.63-15.29,12.17-25.49,13.6C134.71,165.68,127.55,164.58,121.42,161.25z"/>
						</defs>
						<use xlink:href="#SVGID_17_"  style="overflow:visible;"/>
						<clipPath id="SVGID_18_">
							<use xlink:href="#SVGID_17_"  style="overflow:visible;"/>
						</clipPath>
						<g class="st10">
							<path d="M121.42,161.25l-9.43-5.13c0.36,0.19,0.71,0.38,1.08,0.56l9.43,5.13C122.14,161.63,121.78,161.44,121.42,161.25"/>
							<path d="M122.5,161.81l-9.43-5.13c1.81,0.89,3.71,1.59,5.69,2.11l9.43,5.13C126.21,163.4,124.31,162.7,122.5,161.81"/>
							<path d="M128.2,163.92l-9.43-5.13c4.46,1.16,9.36,1.36,14.7,0.61c4.4-0.62,8.49-1.82,12.26-3.59l9.43,5.13
								c-3.77,1.78-7.86,2.97-12.26,3.59C137.56,165.27,132.66,165.07,128.2,163.92"/>
							<path d="M155.15,160.93l-9.43-5.13c1.97-0.93,3.85-2.01,5.64-3.25l9.43,5.13C159,158.92,157.12,160,155.15,160.93"/>
							<path d="M160.8,157.68l-9.43-5.13c1.43-0.99,2.8-2.08,4.12-3.26l9.43,5.13C163.6,155.6,162.23,156.69,160.8,157.68"/>
							<path d="M164.92,154.41l-9.43-5.13c1.2-1.08,2.36-2.24,3.46-3.49c0.05-0.06,0.1-0.12,0.16-0.18l9.43,5.13
								c-0.05,0.06-0.1,0.12-0.16,0.18C167.27,152.17,166.12,153.33,164.92,154.41"/>
							<path d="M168.54,150.75l-9.43-5.13c1.13-1.29,2.19-2.62,3.15-3.99l9.43,5.13C170.72,148.13,169.68,149.46,168.54,150.75"/>
							<path d="M171.69,146.76l-9.43-5.13c0.99-1.41,1.89-2.87,2.7-4.38l9.43,5.13C173.58,143.88,172.68,145.34,171.69,146.76"/>
							<path d="M174.39,142.38l-9.43-5.13c0.97-1.8,1.81-3.67,2.52-5.61l9.43,5.13C176.2,138.7,175.36,140.57,174.39,142.38"/>
							<path d="M176.91,136.77l-9.43-5.13c1.54-4.18,2.48-8.68,2.81-13.5l9.43,5.13C179.39,128.08,178.45,132.58,176.91,136.77"/>
						</g>
					</g>
					<g class="st0">
						<defs>
							<path id="SVGID_19_" class="st0" d="M154.12,70.91c3.14,1.71,6.29,3.42,9.43,5.13c4.82,2.62,8.89,6.73,12.22,12.31
								l-9.43-5.13C163.02,77.64,158.94,73.53,154.12,70.91z"/>
						</defs>
						<use xlink:href="#SVGID_19_"  style="overflow:visible;"/>
						<clipPath id="SVGID_20_">
							<use xlink:href="#SVGID_19_"  style="overflow:visible;"/>
						</clipPath>
						<g class="st11">
							<path d="M175.76,88.35l-9.43-5.13c-3.32-5.58-7.4-9.69-12.22-12.31l9.43,5.13C168.37,78.66,172.44,82.76,175.76,88.35"/>
						</g>
					</g>
					<g class="st0">
						<defs>
							<path id="SVGID_21_" class="st0" d="M162.73,60.13c3.14,1.71,6.29,3.42,9.43,5.13c-1.3-0.71-2.66-1.34-4.05-1.89
								c-7.18-2.81-15.65-3.54-25.43-2.17l-9.43-5.13c9.78-1.38,18.25-0.65,25.43,2.17C160.07,58.79,161.42,59.42,162.73,60.13z"/>
						</defs>
						<use xlink:href="#SVGID_21_"  style="overflow:visible;"/>
						<clipPath id="SVGID_22_">
							<use xlink:href="#SVGID_21_"  style="overflow:visible;"/>
						</clipPath>
						<g class="st12">
							<path d="M142.67,61.2l-9.43-5.13c7.86-1.11,14.88-0.85,21.06,0.75l9.43,5.13C157.55,60.35,150.54,60.09,142.67,61.2"/>
							<path d="M163.73,61.95l-9.43-5.13c1.51,0.39,2.96,0.86,4.37,1.41c0.94,0.37,1.85,0.77,2.75,1.21l9.43,5.13
								c-0.9-0.44-1.81-0.84-2.75-1.21C166.69,62.81,165.24,62.34,163.73,61.95"/>
							<path d="M170.85,64.58l-9.43-5.13c0.44,0.22,0.88,0.44,1.31,0.68l9.43,5.13C171.72,65.02,171.29,64.79,170.85,64.58"/>
						</g>
					</g>
					<g class="st0">
						<defs>
							<path id="SVGID_23_" class="st0" d="M113.25,172.25l-9.43-5.13c-6.95-3.78-12.41-9.23-16.4-16.37
								c-4.53-8.09-6.78-17.68-6.75-28.79c0.02-9.16,1.39-17.6,4.11-25.37c2.73-7.76,6.83-14.82,12.3-21.19
								c4.6-5.35,9.93-9.65,16.01-12.9c6.08-3.26,12.8-5.4,20.16-6.44l9.43,5.13c-7.36,1.04-14.08,3.18-20.16,6.44
								c-6.08,3.25-11.41,7.55-16.01,12.9c-5.47,6.37-9.57,13.43-12.3,21.19c-2.72,7.76-4.09,16.21-4.11,25.37
								c-0.02,11.1,2.23,20.7,6.75,28.79C100.84,163.01,106.3,168.47,113.25,172.25z"/>
						</defs>
						<use xlink:href="#SVGID_23_"  style="overflow:visible;"/>
						<clipPath id="SVGID_24_">
							<use xlink:href="#SVGID_23_"  style="overflow:visible;"/>
						</clipPath>
						<g class="st13">
							<path d="M113.25,172.25l-9.43-5.13c-6.95-3.78-12.41-9.23-16.4-16.37c-4.53-8.09-6.78-17.68-6.75-28.79
								c0.02-9.16,1.39-17.6,4.11-25.37c0.1-0.29,0.21-0.58,0.31-0.87l9.43,5.13c-0.11,0.29-0.21,0.58-0.31,0.87
								c-2.72,7.76-4.09,16.21-4.11,25.37c-0.02,11.1,2.23,20.7,6.75,28.79C100.84,163.01,106.3,168.47,113.25,172.25"/>
							<path d="M94.52,100.85l-9.43-5.13c1.06-2.9,2.32-5.7,3.78-8.4l9.43,5.13C96.84,95.15,95.58,97.95,94.52,100.85"/>
							<path d="M98.29,92.45l-9.43-5.13c1.22-2.27,2.58-4.47,4.07-6.6l9.43,5.13C100.87,87.99,99.51,90.18,98.29,92.45"/>
							<path d="M102.36,85.86l-9.43-5.13c1.28-1.82,2.66-3.6,4.14-5.32c0.17-0.2,0.35-0.4,0.52-0.6l9.43,5.13
								c-0.17,0.2-0.35,0.4-0.52,0.6C105.02,82.26,103.64,84.03,102.36,85.86"/>
							<path d="M107.02,79.94l-9.43-5.13c1.47-1.66,3.01-3.22,4.63-4.68l9.43,5.13C110.03,76.72,108.49,78.28,107.02,79.94"/>
							<path d="M111.65,75.26l-9.43-5.13c1.75-1.57,3.58-3.02,5.5-4.35l9.43,5.13C115.23,72.24,113.4,73.69,111.65,75.26"/>
							<path d="M117.15,70.91l-9.43-5.13c1.72-1.19,3.5-2.28,5.36-3.27c0.84-0.45,1.69-0.88,2.56-1.29l9.43,5.13
								c-0.87,0.41-1.72,0.84-2.56,1.29C120.65,68.63,118.87,69.72,117.15,70.91"/>
							<path d="M125.07,66.35l-9.43-5.13c5.39-2.54,11.26-4.26,17.6-5.15l9.43,5.13C136.33,62.09,130.46,63.81,125.07,66.35"/>
						</g>
					</g>
					<g>
						<path d="M142.67,61.2c9.78-1.37,18.25-0.65,25.43,2.17c7.17,2.82,13.12,7.74,17.83,14.78l-10.17,10.2
							c-3.65-6.13-8.2-10.48-13.66-13.04c-5.46-2.55-11.81-3.33-19.04-2.31c-11.81,1.66-21.41,7.31-28.8,16.95
							c-7.38,9.63-11.08,21.4-11.11,35.31c-0.03,13.11,3.7,23.33,11.16,30.68c7.47,7.35,16.99,10.21,28.57,8.59
							c10.2-1.43,18.69-5.97,25.49-13.6c6.81-7.63,10.59-16.85,11.34-27.66l-29.05,4.08l0.02-11.7l41.98-5.9l-0.01,3.67
							c-0.03,17.3-4.6,31.59-13.69,42.87c-9.1,11.28-21.51,18.02-37.21,20.23c-4.77,0.67-9.33,0.77-13.65,0.28
							c-4.33-0.5-8.32-1.54-11.98-3.12c-8.33-3.77-14.76-9.71-19.28-17.8c-4.53-8.09-6.77-17.68-6.75-28.79
							c0.02-9.16,1.39-17.6,4.11-25.37c2.73-7.76,6.83-14.82,12.3-21.19c4.6-5.35,9.93-9.65,16.01-12.9
							C128.59,64.38,135.31,62.23,142.67,61.2z"/>
					</g>
				</g>
			</g>
		</g>
		<g>
			<g>
				<g class="st0">
					<g>
						<polygon points="159.98,132.41 150.55,127.28 150.57,115.59 160,120.71 						"/>
					</g>
					<g>
						<polygon points="160,120.71 150.57,115.59 192.55,109.68 201.98,114.81 						"/>
					</g>
					<g class="st0">
						<defs>
							<path id="SVGID_25_" class="st0" d="M130.73,166.31c-3.14-1.71-6.29-3.42-9.43-5.13c6.13,3.33,13.29,4.43,21.47,3.28
								c10.2-1.43,18.69-5.97,25.49-13.6c6.8-7.63,10.59-16.85,11.34-27.66l9.43,5.13c-0.76,10.81-4.54,20.03-11.34,27.66
								c-6.8,7.63-15.29,12.17-25.49,13.6C144.01,170.74,136.86,169.65,130.73,166.31z"/>
						</defs>
						<use xlink:href="#SVGID_25_"  style="overflow:visible;"/>
						<clipPath id="SVGID_26_">
							<use xlink:href="#SVGID_25_"  style="overflow:visible;"/>
						</clipPath>
						<g class="st14">
							<path d="M130.73,166.31l-9.43-5.13c0.36,0.19,0.72,0.38,1.08,0.56l9.43,5.13C131.45,166.69,131.08,166.51,130.73,166.31"/>
							<path d="M131.81,166.87l-9.43-5.13c1.81,0.89,3.71,1.59,5.69,2.11l9.43,5.13C135.52,168.46,133.62,167.76,131.81,166.87"/>
							<path d="M137.5,168.98l-9.43-5.13c4.46,1.16,9.36,1.36,14.7,0.61c4.4-0.62,8.49-1.82,12.26-3.59l9.43,5.13
								c-3.77,1.78-7.86,2.97-12.26,3.59C146.86,170.34,141.96,170.13,137.5,168.98"/>
							<path d="M164.46,165.99l-9.43-5.13c1.97-0.93,3.85-2.01,5.64-3.25l9.43,5.13C168.31,163.98,166.43,165.07,164.46,165.99"/>
							<path d="M170.1,162.74l-9.43-5.13c1.43-0.99,2.8-2.08,4.12-3.26l9.43,5.13C172.91,160.66,171.53,161.75,170.1,162.74"/>
							<path d="M174.22,159.47l-9.43-5.13c1.2-1.08,2.36-2.24,3.46-3.49c0.05-0.06,0.11-0.12,0.16-0.18l9.43,5.13
								c-0.05,0.06-0.1,0.12-0.16,0.18C176.58,157.23,175.42,158.39,174.22,159.47"/>
							<path d="M177.85,155.81l-9.43-5.13c1.14-1.29,2.19-2.62,3.15-3.99l9.43,5.13C180.03,153.19,178.98,154.52,177.85,155.81"/>
							<path d="M181,151.82l-9.43-5.13c0.99-1.41,1.89-2.87,2.7-4.38l9.43,5.13C182.89,148.94,181.99,150.4,181,151.82"/>
							<path d="M183.7,147.44l-9.43-5.13c0.97-1.8,1.81-3.67,2.52-5.61l9.43,5.13C185.51,143.77,184.67,145.64,183.7,147.44"/>
							<path d="M186.22,141.83l-9.43-5.13c1.54-4.18,2.47-8.68,2.81-13.5l9.43,5.13C188.7,133.14,187.76,137.64,186.22,141.83"/>
						</g>
					</g>
					<g class="st0">
						<defs>
							<path id="SVGID_27_" class="st0" d="M163.42,75.97c3.14,1.71,6.29,3.42,9.43,5.13c4.82,2.62,8.9,6.73,12.22,12.31l-9.43-5.13
								C172.32,82.7,168.25,78.59,163.42,75.97z"/>
						</defs>
						<use xlink:href="#SVGID_27_"  style="overflow:visible;"/>
						<clipPath id="SVGID_28_">
							<use xlink:href="#SVGID_27_"  style="overflow:visible;"/>
						</clipPath>
						<g class="st15">
							<path d="M185.07,93.41l-9.43-5.13c-3.32-5.58-7.4-9.69-12.22-12.31l9.43,5.13C177.67,83.72,181.75,87.83,185.07,93.41"/>
						</g>
					</g>
					<g class="st0">
						<defs>
							<path id="SVGID_29_" class="st0" d="M172.03,65.19c3.14,1.71,6.28,3.42,9.43,5.13c-1.3-0.71-2.66-1.34-4.05-1.89
								c-7.18-2.81-15.65-3.54-25.43-2.17l-9.43-5.13c9.78-1.38,18.25-0.65,25.43,2.17C169.38,63.85,170.73,64.48,172.03,65.19z"/>
						</defs>
						<use xlink:href="#SVGID_29_"  style="overflow:visible;"/>
						<clipPath id="SVGID_30_">
							<use xlink:href="#SVGID_29_"  style="overflow:visible;"/>
						</clipPath>
						<g class="st16">
							<path d="M151.98,66.26l-9.43-5.13c7.87-1.11,14.88-0.85,21.06,0.75l9.43,5.13C166.86,65.41,159.84,65.16,151.98,66.26"/>
							<path d="M173.04,67.01l-9.43-5.13c1.5,0.39,2.96,0.86,4.37,1.41c0.94,0.37,1.85,0.77,2.75,1.21l9.43,5.13
								c-0.89-0.44-1.81-0.84-2.75-1.21C176,67.88,174.54,67.4,173.04,67.01"/>
							<path d="M180.15,69.64l-9.43-5.13c0.44,0.22,0.88,0.44,1.31,0.68l9.43,5.13C181.03,70.08,180.59,69.86,180.15,69.64"/>
						</g>
					</g>
					<g class="st0">
						<defs>
							<path id="SVGID_31_" class="st0" d="M122.55,177.31l-9.43-5.13c-6.94-3.78-12.41-9.23-16.4-16.37
								c-4.53-8.09-6.77-17.68-6.75-28.79c0.02-9.16,1.39-17.6,4.11-25.37c2.73-7.76,6.83-14.82,12.3-21.19
								c4.6-5.35,9.93-9.65,16.01-12.9c6.07-3.26,12.8-5.4,20.16-6.44l9.43,5.13c-7.36,1.04-14.08,3.18-20.16,6.44
								c-6.08,3.25-11.41,7.55-16.01,12.9c-5.47,6.37-9.57,13.43-12.3,21.19c-2.72,7.76-4.09,16.21-4.11,25.37
								c-0.02,11.1,2.23,20.7,6.75,28.79C110.14,168.08,115.61,173.53,122.55,177.31z"/>
						</defs>
						<use xlink:href="#SVGID_31_"  style="overflow:visible;"/>
						<clipPath id="SVGID_32_">
							<use xlink:href="#SVGID_31_"  style="overflow:visible;"/>
						</clipPath>
						<g class="st17">
							<path d="M122.55,177.31l-9.43-5.13c-6.94-3.78-12.41-9.23-16.4-16.37c-4.53-8.09-6.77-17.68-6.75-28.79
								c0.02-9.16,1.39-17.6,4.11-25.37c0.1-0.29,0.21-0.58,0.31-0.87l9.43,5.13c-0.11,0.29-0.21,0.58-0.31,0.87
								c-2.72,7.76-4.09,16.21-4.11,25.37c-0.02,11.1,2.23,20.7,6.75,28.79C110.14,168.08,115.61,173.53,122.55,177.31"/>
							<path d="M103.82,105.91l-9.43-5.13c1.07-2.9,2.32-5.7,3.78-8.4l9.43,5.13C106.15,100.22,104.89,103.02,103.82,105.91"/>
							<path d="M107.6,97.52l-9.43-5.13c1.22-2.27,2.58-4.47,4.07-6.6l9.43,5.13C110.18,93.05,108.82,95.25,107.6,97.52"/>
							<path d="M111.67,90.92l-9.43-5.13c1.28-1.82,2.66-3.6,4.14-5.32c0.17-0.2,0.35-0.4,0.52-0.6l9.43,5.13
								c-0.18,0.2-0.35,0.4-0.52,0.6C114.33,87.32,112.95,89.1,111.67,90.92"/>
							<path d="M116.33,85l-9.43-5.13c1.47-1.66,3.01-3.22,4.63-4.68l9.43,5.13C119.34,81.78,117.8,83.34,116.33,85"/>
							<path d="M120.96,80.32l-9.43-5.13c1.75-1.57,3.58-3.02,5.5-4.35l9.43,5.13C124.54,77.3,122.7,78.75,120.96,80.32"/>
							<path d="M126.46,75.97l-9.43-5.13c1.72-1.19,3.51-2.28,5.36-3.27c0.84-0.45,1.69-0.88,2.56-1.29l9.43,5.13
								c-0.87,0.41-1.72,0.84-2.56,1.29C129.96,73.69,128.17,74.78,126.46,75.97"/>
							<path d="M134.38,71.41l-9.43-5.13c5.39-2.54,11.26-4.26,17.6-5.15l9.43,5.13C145.63,67.15,139.76,68.87,134.38,71.41"/>
						</g>
					</g>
					<g>
						<path d="M151.98,66.26c9.78-1.38,18.25-0.65,25.43,2.17c7.17,2.82,13.12,7.74,17.83,14.78l-10.17,10.2
							c-3.65-6.13-8.21-10.48-13.66-13.04c-5.46-2.55-11.8-3.33-19.04-2.31c-11.81,1.66-21.41,7.31-28.8,16.95
							c-7.38,9.63-11.08,21.41-11.11,35.31c-0.02,13.11,3.7,23.33,11.16,30.68c7.46,7.35,16.99,10.21,28.57,8.59
							c10.2-1.43,18.69-5.97,25.49-13.6c6.8-7.63,10.59-16.85,11.34-27.66l-29.05,4.08l0.02-11.7l41.98-5.9l-0.01,3.67
							c-0.03,17.3-4.6,31.59-13.7,42.87c-9.1,11.28-21.51,18.02-37.21,20.23c-4.77,0.67-9.33,0.77-13.65,0.28
							c-4.33-0.5-8.33-1.54-11.98-3.12c-8.33-3.77-14.76-9.71-19.28-17.8c-4.53-8.09-6.77-17.68-6.75-28.79
							c0.02-9.16,1.39-17.6,4.11-25.37c2.73-7.76,6.83-14.82,12.3-21.19c4.6-5.35,9.93-9.65,16.01-12.9
							C137.89,69.44,144.62,67.3,151.98,66.26z"/>
					</g>
				</g>
			</g>
		</g>
		<g class="st18">
			<g>
				<g class="st0">
					<g>
						<polygon points="169.29,137.62 159.86,132.5 159.88,120.8 169.31,125.93 						"/>
					</g>
					<g>
						<polygon points="169.31,125.93 159.88,120.8 201.86,114.9 211.29,120.02 						"/>
					</g>
					<g class="st0">
						<defs>
							<path id="SVGID_33_" class="st0" d="M140.03,171.52c-3.14-1.71-6.29-3.42-9.43-5.13c6.13,3.33,13.29,4.43,21.47,3.28
								c10.2-1.43,18.69-5.97,25.49-13.6c6.8-7.63,10.59-16.85,11.34-27.66l9.43,5.13c-0.76,10.81-4.54,20.03-11.34,27.66
								c-6.8,7.63-15.29,12.17-25.49,13.6C153.32,175.95,146.16,174.86,140.03,171.52z"/>
						</defs>
						<use xlink:href="#SVGID_33_"  style="overflow:visible;"/>
						<clipPath id="SVGID_34_">
							<use xlink:href="#SVGID_33_"  style="overflow:visible;"/>
						</clipPath>
						<g class="st19">
							<path d="M140.03,171.52l-9.43-5.13c0.36,0.19,0.72,0.38,1.08,0.56l9.43,5.13C140.75,171.9,140.39,171.72,140.03,171.52"/>
							<path d="M141.11,172.08l-9.43-5.13c1.81,0.89,3.71,1.59,5.69,2.11l9.43,5.13C144.82,173.67,142.92,172.97,141.11,172.08"/>
							<path d="M146.8,174.19l-9.43-5.13c4.46,1.16,9.36,1.36,14.7,0.61c4.4-0.62,8.49-1.82,12.26-3.59l9.43,5.13
								c-3.77,1.78-7.86,2.97-12.26,3.59C156.17,175.55,151.27,175.35,146.8,174.19"/>
							<path d="M173.76,171.2l-9.43-5.13c1.97-0.93,3.85-2.01,5.64-3.25l9.43,5.13C177.61,169.19,175.73,170.28,173.76,171.2"/>
							<path d="M179.41,167.95l-9.43-5.13c1.43-0.99,2.8-2.08,4.12-3.26l9.43,5.13C182.21,165.87,180.84,166.96,179.41,167.95"/>
							<path d="M183.53,164.68l-9.43-5.13c1.2-1.08,2.36-2.24,3.46-3.49c0.05-0.06,0.11-0.12,0.16-0.18l9.43,5.13
								c-0.05,0.06-0.1,0.12-0.16,0.18C185.88,162.44,184.73,163.6,183.53,164.68"/>
							<path d="M187.15,161.02l-9.43-5.13c1.14-1.29,2.19-2.62,3.15-3.99l9.43,5.13C189.34,158.4,188.29,159.73,187.15,161.02"/>
							<path d="M190.3,157.03l-9.43-5.13c0.99-1.41,1.89-2.87,2.7-4.38l9.43,5.13C192.19,154.16,191.29,155.62,190.3,157.03"/>
							<path d="M193,152.65l-9.43-5.13c0.97-1.8,1.81-3.67,2.52-5.61l9.43,5.13C194.81,148.98,193.97,150.85,193,152.65"/>
							<path d="M195.53,147.04l-9.43-5.13c1.54-4.18,2.47-8.68,2.81-13.5l9.43,5.13C198,138.35,197.06,142.85,195.53,147.04"/>
						</g>
					</g>
					<g class="st0">
						<defs>
							<path id="SVGID_35_" class="st0" d="M172.73,81.18c3.14,1.71,6.29,3.42,9.43,5.13c4.82,2.62,8.9,6.73,12.22,12.31l-9.43-5.13
								C181.62,87.91,177.55,83.8,172.73,81.18z"/>
						</defs>
						<use xlink:href="#SVGID_35_"  style="overflow:visible;"/>
						<clipPath id="SVGID_36_">
							<use xlink:href="#SVGID_35_"  style="overflow:visible;"/>
						</clipPath>
						<g class="st20">
							<path d="M194.38,98.62l-9.43-5.13c-3.32-5.58-7.4-9.69-12.22-12.31l9.43,5.13C186.98,88.93,191.05,93.04,194.38,98.62"/>
						</g>
					</g>
					<g class="st0">
						<defs>
							<path id="SVGID_37_" class="st0" d="M181.34,70.4c3.14,1.71,6.28,3.42,9.43,5.13c-1.3-0.71-2.66-1.34-4.05-1.89
								c-7.18-2.81-15.65-3.54-25.43-2.17l-9.43-5.13c9.78-1.38,18.25-0.65,25.43,2.17C178.68,69.06,180.03,69.69,181.34,70.4z"/>
						</defs>
						<use xlink:href="#SVGID_37_"  style="overflow:visible;"/>
						<clipPath id="SVGID_38_">
							<use xlink:href="#SVGID_37_"  style="overflow:visible;"/>
						</clipPath>
						<g class="st21">
							<path d="M161.28,71.47l-9.43-5.13c7.87-1.11,14.88-0.85,21.06,0.75l9.43,5.13C176.16,70.62,169.14,70.37,161.28,71.47"/>
							<path d="M182.34,72.23l-9.43-5.13c1.5,0.39,2.96,0.86,4.37,1.41c0.94,0.37,1.85,0.77,2.75,1.21l9.43,5.13
								c-0.89-0.44-1.81-0.84-2.75-1.21C185.3,73.09,183.85,72.62,182.34,72.23"/>
							<path d="M189.46,74.85l-9.43-5.13c0.44,0.22,0.88,0.44,1.31,0.68l9.43,5.13C190.33,75.29,189.9,75.07,189.46,74.85"/>
						</g>
					</g>
					<g class="st0">
						<defs>
							<path id="SVGID_39_" class="st0" d="M131.86,182.52l-9.43-5.13c-6.94-3.78-12.41-9.23-16.4-16.37
								c-4.53-8.09-6.77-17.68-6.75-28.79c0.02-9.16,1.39-17.6,4.11-25.37c2.73-7.76,6.83-14.82,12.3-21.19
								c4.6-5.35,9.93-9.65,16.01-12.9c6.07-3.26,12.8-5.4,20.16-6.44l9.43,5.13c-7.36,1.04-14.08,3.18-20.16,6.44
								c-6.08,3.25-11.41,7.55-16.01,12.9c-5.47,6.37-9.57,13.43-12.3,21.19c-2.72,7.76-4.09,16.21-4.11,25.37
								c-0.02,11.1,2.23,20.7,6.75,28.79C119.45,173.29,124.91,178.74,131.86,182.52z"/>
						</defs>
						<use xlink:href="#SVGID_39_"  style="overflow:visible;"/>
						<clipPath id="SVGID_40_">
							<use xlink:href="#SVGID_39_"  style="overflow:visible;"/>
						</clipPath>
						<g class="st22">
							<path d="M131.86,182.52l-9.43-5.13c-6.94-3.78-12.41-9.23-16.4-16.37c-4.53-8.09-6.77-17.68-6.75-28.79
								c0.02-9.16,1.39-17.6,4.11-25.37c0.1-0.29,0.21-0.58,0.31-0.87l9.43,5.13c-0.11,0.29-0.21,0.58-0.31,0.87
								c-2.72,7.76-4.09,16.21-4.11,25.37c-0.02,11.1,2.23,20.7,6.75,28.79C119.45,173.29,124.91,178.74,131.86,182.52"/>
							<path d="M113.13,111.12L103.7,106c1.07-2.9,2.32-5.7,3.78-8.4l9.43,5.13C115.45,105.43,114.19,108.23,113.13,111.12"/>
							<path d="M116.9,102.73l-9.43-5.13c1.22-2.27,2.58-4.47,4.07-6.6l9.43,5.13C119.48,98.26,118.12,100.46,116.9,102.73"/>
							<path d="M120.97,96.13L111.55,91c1.28-1.82,2.66-3.6,4.14-5.32c0.17-0.2,0.35-0.4,0.52-0.6l9.43,5.13
								c-0.18,0.2-0.35,0.4-0.52,0.6C123.63,92.53,122.25,94.31,120.97,96.13"/>
							<path d="M125.63,90.21l-9.43-5.13c1.47-1.66,3.01-3.22,4.63-4.68l9.43,5.13C128.64,86.99,127.1,88.55,125.63,90.21"/>
							<path d="M130.26,85.54l-9.43-5.13c1.75-1.57,3.58-3.02,5.5-4.35l9.43,5.13C133.84,82.51,132.01,83.96,130.26,85.54"/>
							<path d="M135.76,81.18l-9.43-5.13c1.72-1.19,3.51-2.28,5.36-3.27c0.84-0.45,1.69-0.88,2.56-1.29l9.43,5.13
								c-0.87,0.41-1.72,0.84-2.56,1.29C139.27,78.9,137.48,79.99,135.76,81.18"/>
							<path d="M143.68,76.62l-9.43-5.13c5.39-2.54,11.26-4.26,17.6-5.15l9.43,5.13C154.94,72.36,149.07,74.08,143.68,76.62"/>
						</g>
					</g>
					<g>
						<path d="M161.28,71.47c9.78-1.38,18.25-0.65,25.43,2.17c7.17,2.82,13.12,7.74,17.83,14.78l-10.17,10.2
							c-3.65-6.13-8.21-10.48-13.66-13.04c-5.46-2.55-11.8-3.33-19.04-2.31c-11.81,1.66-21.41,7.31-28.8,16.95
							c-7.38,9.63-11.08,21.41-11.11,35.31c-0.02,13.11,3.7,23.33,11.16,30.68c7.46,7.35,16.99,10.21,28.57,8.59
							c10.2-1.43,18.69-5.97,25.49-13.6c6.8-7.63,10.59-16.85,11.34-27.66l-29.05,4.08l0.02-11.7l41.98-5.9l-0.01,3.67
							c-0.03,17.3-4.6,31.59-13.7,42.87c-9.1,11.28-21.51,18.02-37.21,20.23c-4.77,0.67-9.33,0.77-13.65,0.28
							c-4.33-0.5-8.33-1.54-11.98-3.12c-8.33-3.77-14.76-9.71-19.28-17.8c-4.53-8.09-6.77-17.68-6.75-28.79
							c0.02-9.16,1.39-17.6,4.11-25.37c2.73-7.76,6.83-14.82,12.3-21.19c4.6-5.35,9.93-9.65,16.01-12.9
							C147.2,74.65,153.92,72.51,161.28,71.47z"/>
					</g>
				</g>
			</g>
		</g>
	</g>
</g>
</svg>
